<?xml version="1.0" encoding="UTF-8" standalone="no"?>
<!-- Created with Inkscape (http://www.inkscape.org/) -->
<svg xmlns:inkscape="http://www.inkscape.org/namespaces/inkscape" xmlns:rdf="http://www.w3.org/1999/02/22-rdf-syntax-ns#" xmlns="http://www.w3.org/2000/svg" xmlns:cc="http://creativecommons.org/ns#" xmlns:dc="http://purl.org/dc/elements/1.1/" xmlns:sodipodi="http://sodipodi.sourceforge.net/DTD/sodipodi-0.dtd" xmlns:svg="http://www.w3.org/2000/svg" xmlns:ns1="http://sozi.baierouge.fr" xmlns:xlink="http://www.w3.org/1999/xlink" id="svg4318" sodipodi:docname="dibujo-23.svg" viewBox="0 0 170.01 158.09" version="1.1" inkscape:version="0.48.3.1 r9886">
  <sodipodi:namedview id="base" bordercolor="#666666" inkscape:pageshadow="2" inkscape:window-y="167" fit-margin-left="0" pagecolor="#ffffff" fit-margin-top="0" inkscape:window-maximized="0" inkscape:zoom="1.4" inkscape:window-x="1755" inkscape:window-height="404" showgrid="false" borderopacity="1.0" inkscape:current-layer="layer1" inkscape:cx="61.804802" inkscape:cy="88.327086" fit-margin-right="0" fit-margin-bottom="0" inkscape:window-width="573" inkscape:pageopacity="0.0" inkscape:document-units="px"/>
  <g id="layer1" inkscape:label="Capa 1" inkscape:groupmode="layer" transform="translate(-297.98 -501.95)">
    <g id="g8368" inkscape:export-ydpi="138.89999" inkscape:export-filename="/home/stilgar/tmp/1.png" transform="matrix(.45514 0 0 .49162 634.9 541.91)" inkscape:export-xdpi="138.89999">
      <path id="path8370" sodipodi:rx="49.642857" sodipodi:ry="49.642857" style="opacity:.64706;fill:#9eca2e" sodipodi:type="arc" d="m-610 82.719c0 27.417-22.226 49.643-49.643 49.643s-49.643-22.226-49.643-49.643 22.226-49.643 49.643-49.643 49.643 22.226 49.643 49.643z" transform="matrix(1.1374 0 0 1.1374 175.05 38.479)" sodipodi:cy="82.719322" sodipodi:cx="-659.64288"/>
      <path id="path8372" sodipodi:rx="49.642857" sodipodi:ry="49.642857" style="opacity:.64706;fill:#9eca2e" sodipodi:type="arc" d="m-610 82.719c0 27.417-22.226 49.643-49.643 49.643s-49.643-22.226-49.643-49.643 22.226-49.643 49.643-49.643 49.643 22.226 49.643 49.643z" transform="matrix(.93387 0 0 .93387 -33.427 43.189)" sodipodi:cy="82.719322" sodipodi:cx="-659.64288"/>
      <path id="path8374" sodipodi:rx="49.642857" sodipodi:ry="49.642857" style="opacity:.64706;fill:#9eca2e" sodipodi:type="arc" d="m-610 82.719c0 27.417-22.226 49.643-49.643 49.643s-49.643-22.226-49.643-49.643 22.226-49.643 49.643-49.643 49.643 22.226 49.643 49.643z" transform="matrix(.90843 0 0 .90843 -95.915 23.827)" sodipodi:cy="82.719322" sodipodi:cx="-659.64288"/>
      <path id="path8376" sodipodi:rx="49.642857" sodipodi:ry="49.642857" style="opacity:.64706;fill:#9eca2e" sodipodi:type="arc" d="m-610 82.719c0 27.417-22.226 49.643-49.643 49.643s-49.643-22.226-49.643-49.643 22.226-49.643 49.643-49.643 49.643 22.226 49.643 49.643z" transform="matrix(.78125 0 0 .78125 -157.84 -17.928)" sodipodi:cy="82.719322" sodipodi:cx="-659.64288"/>
      <path id="path8378" sodipodi:rx="49.642857" sodipodi:ry="49.642857" style="opacity:.64706;fill:#9eca2e" sodipodi:type="arc" d="m-610 82.719c0 27.417-22.226 49.643-49.643 49.643s-49.643-22.226-49.643-49.643 22.226-49.643 49.643-49.643 49.643 22.226 49.643 49.643z" transform="matrix(1.0407 0 0 1.0407 66.191 -101.82)" sodipodi:cy="82.719322" sodipodi:cx="-659.64288"/>
      <path id="path8380" sodipodi:rx="49.642857" sodipodi:ry="49.642857" style="opacity:.64706;fill:#9eca2e" sodipodi:type="arc" d="m-610 82.719c0 27.417-22.226 49.643-49.643 49.643s-49.643-22.226-49.643-49.643 22.226-49.643 49.643-49.643 49.643 22.226 49.643 49.643z" transform="matrix(.83721 0 0 .83721 42.469 -98.066)" sodipodi:cy="82.719322" sodipodi:cx="-659.64288"/>
      <path id="path8382" sodipodi:rx="49.642857" sodipodi:ry="49.642857" style="opacity:.64706;fill:#9eca2e" sodipodi:type="arc" d="m-610 82.719c0 27.417-22.226 49.643-49.643 49.643s-49.643-22.226-49.643-49.643 22.226-49.643 49.643-49.643 49.643 22.226 49.643 49.643z" transform="matrix(1.0102 0 0 1.0102 242.42 -62.876)" sodipodi:cy="82.719322" sodipodi:cx="-659.64288"/>
      <path id="path8384" sodipodi:rx="49.642857" sodipodi:ry="49.642857" style="opacity:.64706;fill:#9eca2e" sodipodi:type="arc" d="m-610 82.719c0 27.417-22.226 49.643-49.643 49.643s-49.643-22.226-49.643-49.643 22.226-49.643 49.643-49.643 49.643 22.226 49.643 49.643z" transform="matrix(1.0102 0 0 1.0102 208.58 -92.675)" sodipodi:cy="82.719322" sodipodi:cx="-659.64288"/>
      <path id="path8386" sodipodi:rx="49.642857" sodipodi:ry="49.642857" style="opacity:.64706;fill:#9eca2e" sodipodi:type="arc" d="m-610 82.719c0 27.417-22.226 49.643-49.643 49.643s-49.643-22.226-49.643-49.643 22.226-49.643 49.643-49.643 49.643 22.226 49.643 49.643z" transform="matrix(.61338 0 0 .61338 7.4513 40.152)" sodipodi:cy="82.719322" sodipodi:cx="-659.64288"/>
      <path id="path8388" sodipodi:rx="49.642857" sodipodi:ry="49.642857" style="opacity:.64706;fill:#9eca2e" sodipodi:type="arc" d="m-610 82.719c0 27.417-22.226 49.643-49.643 49.643s-49.643-22.226-49.643-49.643 22.226-49.643 49.643-49.643 49.643 22.226 49.643 49.643z" transform="matrix(1.1068 0 0 1.1068 275.12 31.407)" sodipodi:cy="82.719322" sodipodi:cx="-659.64288"/>
      <path id="path8390" sodipodi:rx="49.642857" sodipodi:ry="49.642857" style="opacity:.64706;fill:#9eca2e" sodipodi:type="arc" d="m-610 82.719c0 27.417-22.226 49.643-49.643 49.643s-49.643-22.226-49.643-49.643 22.226-49.643 49.643-49.643 49.643 22.226 49.643 49.643z" transform="matrix(.78634 0 0 .78634 4.4617 57.724)" sodipodi:cy="82.719322" sodipodi:cx="-659.64288"/>
      <path id="path8392" sodipodi:rx="49.642857" sodipodi:ry="49.642857" style="opacity:.64706;fill:#9eca2e" sodipodi:type="arc" d="m-610 82.719c0 27.417-22.226 49.643-49.643 49.643s-49.643-22.226-49.643-49.643 22.226-49.643 49.643-49.643 49.643 22.226 49.643 49.643z" transform="matrix(.78634 0 0 .78634 -36.253 -36.561)" sodipodi:cy="82.719322" sodipodi:cx="-659.64288"/>
      <path id="path8394" sodipodi:rx="49.642857" sodipodi:ry="49.642857" style="opacity:.64706;fill:#9eca2e" sodipodi:type="arc" d="m-610 82.719c0 27.417-22.226 49.643-49.643 49.643s-49.643-22.226-49.643-49.643 22.226-49.643 49.643-49.643 49.643 22.226 49.643 49.643z" transform="matrix(.78634 0 0 .78634 -61.253 16.296)" sodipodi:cy="82.719322" sodipodi:cx="-659.64288"/>
      <path id="path8396" sodipodi:rx="49.642857" sodipodi:ry="49.642857" style="opacity:.64706;fill:#9eca2e" sodipodi:type="arc" d="m-610 82.719c0 27.417-22.226 49.643-49.643 49.643s-49.643-22.226-49.643-49.643 22.226-49.643 49.643-49.643 49.643 22.226 49.643 49.643z" transform="matrix(.54174 0 0 .54174 -200.32 -99.185)" sodipodi:cy="82.719322" sodipodi:cx="-659.64288"/>
      <path id="path8398" sodipodi:rx="49.642857" sodipodi:ry="49.642857" style="opacity:.64706;fill:#9eca2e" sodipodi:type="arc" d="m-610 82.719c0 27.417-22.226 49.643-49.643 49.643s-49.643-22.226-49.643-49.643 22.226-49.643 49.643-49.643 49.643 22.226 49.643 49.643z" transform="matrix(.32591 0 0 .32591 -388.4 152.24)" sodipodi:cy="82.719322" sodipodi:cx="-659.64288"/>
      <path id="path8400" sodipodi:rx="49.642857" sodipodi:ry="49.642857" style="opacity:.64706;fill:#9eca2e" sodipodi:type="arc" d="m-610 82.719c0 27.417-22.226 49.643-49.643 49.643s-49.643-22.226-49.643-49.643 22.226-49.643 49.643-49.643 49.643 22.226 49.643 49.643z" transform="matrix(.20361 0 0 .20361 -504.43 161.28)" sodipodi:cy="82.719322" sodipodi:cx="-659.64288"/>
      <path id="path8402" sodipodi:rx="49.642857" sodipodi:ry="49.642857" style="opacity:.64706;fill:#9eca2e" sodipodi:type="arc" d="m-610 82.719c0 27.417-22.226 49.643-49.643 49.643s-49.643-22.226-49.643-49.643 22.226-49.643 49.643-49.643 49.643 22.226 49.643 49.643z" transform="matrix(.78634 0 0 .78634 13.747 -11.561)" sodipodi:cy="82.719322" sodipodi:cx="-659.64288"/>
      <g id="g8404" transform="matrix(.83017 0 0 .83017 -458.71 26.304)">
        <path id="path8406" sodipodi:nodetypes="sccccccs" style="stroke:#ffffff;stroke-width:1px;fill:#fef202" inkscape:connector-curvature="0" d="m-247.23 146.38c-0.70944-2.9915 2.9534-5.2512 3.8166-7.9125 3.5191-9.6031 15.118-15.569 27.959-9.8034 1.4958 1.3287 2.93 3.4021 5.2856 3.66 6.3771 1.6832 2.311 5.0545 0.97428 7.8645-1.9411 6.8005-7.6076 12.93-13.984 14.657-6.3997 0.82239-14.471-0.66999-19.111-4.8205-1.509-2.2067-4.6654-2.4874-4.94-3.6456z"/>
        <path id="path8408" sodipodi:rx="1.1048543" sodipodi:ry="0.9785853" style="fill:#f9f9f9" sodipodi:type="arc" d="m-227.41 151.53c0 0.54046-0.49466 0.97859-1.1048 0.97859-0.6102 0-1.1049-0.43813-1.1049-0.97859 0-0.54045 0.49466-0.97858 1.1049-0.97858 0.61019 0 1.1048 0.43813 1.1048 0.97858z" sodipodi:cy="151.52708" sodipodi:cx="-228.51544"/>
        <path id="path8410" sodipodi:rx="1.0732871" sodipodi:ry="0.94701803" style="fill:#f9f9f9" sodipodi:type="arc" d="m-224.19 147.71c0 0.52303-0.48052 0.94702-1.0733 0.94702-0.59276 0-1.0733-0.42399-1.0733-0.94702 0-0.52302 0.48053-0.94701 1.0733-0.94701 0.59276 0 1.0733 0.42399 1.0733 0.94701z" sodipodi:cy="147.70744" sodipodi:cx="-225.26402"/>
        <path id="path8412" sodipodi:rx="1.0101526" sodipodi:ry="0.9785853" style="fill:#f9f9f9" sodipodi:type="arc" d="m-220.53 150.9c0 0.54045-0.45226 0.97858-1.0102 0.97858-0.55789 0-1.0102-0.43813-1.0102-0.97858 0-0.54046 0.45226-0.97859 1.0102-0.97859 0.55789 0 1.0102 0.43813 1.0102 0.97859z" sodipodi:cy="150.89574" sodipodi:cx="-221.53908"/>
        <path id="path8414" sodipodi:rx="1.0101526" sodipodi:ry="1.0417198" style="fill:#f9f9f9" sodipodi:type="arc" d="m-220.59 146.67c0 0.57532-0.45226 1.0417-1.0102 1.0417-0.55789 0-1.0102-0.4664-1.0102-1.0417 0-0.57533 0.45226-1.0417 1.0102-1.0417 0.55789 0 1.0102 0.46639 1.0102 1.0417z" sodipodi:cy="146.66573" sodipodi:cx="-221.60222"/>
        <path id="path8416" sodipodi:rx="0.94701803" sodipodi:ry="0.88388348" style="fill:#f9f9f9" sodipodi:type="arc" d="m-219.33 143.86c0 0.48816-0.424 0.88389-0.94702 0.88389-0.52303 0-0.94702-0.39573-0.94702-0.88389 0-0.48815 0.42399-0.88388 0.94702-0.88388 0.52302 0 0.94702 0.39573 0.94702 0.88388z" sodipodi:cy="143.85623" sodipodi:cx="-220.27638"/>
        <path id="path8418" sodipodi:rx="0.91545075" sodipodi:ry="0.9785853" style="fill:#f9f9f9" sodipodi:type="arc" d="m-214.15 143.76c0 0.54045-0.40987 0.97858-0.91545 0.97858-0.50559 0-0.91546-0.43813-0.91546-0.97858 0-0.54046 0.40987-0.97859 0.91546-0.97859 0.50558 0 0.91545 0.43813 0.91545 0.97859z" sodipodi:cy="143.76154" sodipodi:cx="-215.06779"/>
        <path id="path8420" sodipodi:rx="0.75761443" sodipodi:ry="0.72604716" style="fill:#f9f9f9" sodipodi:type="arc" d="m-216.05 146.86c0 0.40099-0.3392 0.72605-0.75762 0.72605-0.41841 0-0.75761-0.32506-0.75761-0.72605 0-0.40098 0.3392-0.72604 0.75761-0.72604 0.41842 0 0.75762 0.32506 0.75762 0.72604z" sodipodi:cy="146.85513" sodipodi:cx="-216.80399"/>
      </g>
      <g id="g8422" transform="matrix(.32966 .90546 -.90546 .32966 -510.49 271.44)">
        <path id="path8424" sodipodi:nodetypes="sccccccs" style="stroke:#ffffff;stroke-width:1px;fill:#fef202" inkscape:connector-curvature="0" d="m-247.23 146.38c-0.70944-2.9915 2.9534-5.2512 3.8166-7.9125 3.5191-9.6031 15.118-15.569 27.959-9.8034 1.4958 1.3287 2.93 3.4021 5.2856 3.66 6.3771 1.6832 2.311 5.0545 0.97428 7.8645-1.9411 6.8005-7.6076 12.93-13.984 14.657-6.3997 0.82239-14.471-0.66999-19.111-4.8205-1.509-2.2067-4.6654-2.4874-4.94-3.6456z"/>
        <path id="path8426" sodipodi:rx="1.1048543" sodipodi:ry="0.9785853" style="fill:#f9f9f9" sodipodi:type="arc" d="m-227.41 151.53c0 0.54046-0.49466 0.97859-1.1048 0.97859-0.6102 0-1.1049-0.43813-1.1049-0.97859 0-0.54045 0.49466-0.97858 1.1049-0.97858 0.61019 0 1.1048 0.43813 1.1048 0.97858z" sodipodi:cy="151.52708" sodipodi:cx="-228.51544"/>
        <path id="path8428" sodipodi:rx="1.0732871" sodipodi:ry="0.94701803" style="fill:#f9f9f9" sodipodi:type="arc" d="m-224.19 147.71c0 0.52303-0.48052 0.94702-1.0733 0.94702-0.59276 0-1.0733-0.42399-1.0733-0.94702 0-0.52302 0.48053-0.94701 1.0733-0.94701 0.59276 0 1.0733 0.42399 1.0733 0.94701z" sodipodi:cy="147.70744" sodipodi:cx="-225.26402"/>
        <path id="path8430" sodipodi:rx="1.0101526" sodipodi:ry="0.9785853" style="fill:#f9f9f9" sodipodi:type="arc" d="m-220.53 150.9c0 0.54045-0.45226 0.97858-1.0102 0.97858-0.55789 0-1.0102-0.43813-1.0102-0.97858 0-0.54046 0.45226-0.97859 1.0102-0.97859 0.55789 0 1.0102 0.43813 1.0102 0.97859z" sodipodi:cy="150.89574" sodipodi:cx="-221.53908"/>
        <path id="path8432" sodipodi:rx="1.0101526" sodipodi:ry="1.0417198" style="fill:#f9f9f9" sodipodi:type="arc" d="m-220.59 146.67c0 0.57532-0.45226 1.0417-1.0102 1.0417-0.55789 0-1.0102-0.4664-1.0102-1.0417 0-0.57533 0.45226-1.0417 1.0102-1.0417 0.55789 0 1.0102 0.46639 1.0102 1.0417z" sodipodi:cy="146.66573" sodipodi:cx="-221.60222"/>
        <path id="path8434" sodipodi:rx="0.94701803" sodipodi:ry="0.88388348" style="fill:#f9f9f9" sodipodi:type="arc" d="m-219.33 143.86c0 0.48816-0.424 0.88389-0.94702 0.88389-0.52303 0-0.94702-0.39573-0.94702-0.88389 0-0.48815 0.42399-0.88388 0.94702-0.88388 0.52302 0 0.94702 0.39573 0.94702 0.88388z" sodipodi:cy="143.85623" sodipodi:cx="-220.27638"/>
        <path id="path8436" sodipodi:rx="0.91545075" sodipodi:ry="0.9785853" style="fill:#f9f9f9" sodipodi:type="arc" d="m-214.15 143.76c0 0.54045-0.40987 0.97858-0.91545 0.97858-0.50559 0-0.91546-0.43813-0.91546-0.97858 0-0.54046 0.40987-0.97859 0.91546-0.97859 0.50558 0 0.91545 0.43813 0.91545 0.97859z" sodipodi:cy="143.76154" sodipodi:cx="-215.06779"/>
        <path id="path8438" sodipodi:rx="0.75761443" sodipodi:ry="0.72604716" style="fill:#f9f9f9" sodipodi:type="arc" d="m-216.05 146.86c0 0.40099-0.3392 0.72605-0.75762 0.72605-0.41841 0-0.75761-0.32506-0.75761-0.72605 0-0.40098 0.3392-0.72604 0.75761-0.72604 0.41842 0 0.75762 0.32506 0.75762 0.72604z" sodipodi:cy="146.85513" sodipodi:cx="-216.80399"/>
      </g>
      <g id="g8440" transform="matrix(.94990 -.16196 .16196 .94990 -487.85 -108.18)">
        <path id="path8442" d="m-247.23 146.38c-0.70944-2.9915 2.9534-5.2512 3.8166-7.9125 3.5191-9.6031 15.118-15.569 27.959-9.8034 1.4958 1.3287 2.93 3.4021 5.2856 3.66 6.3771 1.6832 2.311 5.0545 0.97428 7.8645-1.9411 6.8005-7.6076 12.93-13.984 14.657-6.3997 0.82239-14.471-0.66999-19.111-4.8205-1.509-2.2067-4.6654-2.4874-4.94-3.6456z" sodipodi:nodetypes="sccccccs" style="stroke:#ffffff;stroke-width:1px;fill:#fef202" inkscape:connector-curvature="0"/>
        <path id="path8444" sodipodi:rx="1.1048543" sodipodi:ry="0.9785853" style="fill:#f9f9f9" sodipodi:type="arc" d="m-227.41 151.53c0 0.54046-0.49466 0.97859-1.1048 0.97859-0.6102 0-1.1049-0.43813-1.1049-0.97859 0-0.54045 0.49466-0.97858 1.1049-0.97858 0.61019 0 1.1048 0.43813 1.1048 0.97858z" sodipodi:cy="151.52708" sodipodi:cx="-228.51544"/>
        <path id="path8446" sodipodi:rx="1.0732871" sodipodi:ry="0.94701803" style="fill:#f9f9f9" sodipodi:type="arc" d="m-224.19 147.71c0 0.52303-0.48052 0.94702-1.0733 0.94702-0.59276 0-1.0733-0.42399-1.0733-0.94702 0-0.52302 0.48053-0.94701 1.0733-0.94701 0.59276 0 1.0733 0.42399 1.0733 0.94701z" sodipodi:cy="147.70744" sodipodi:cx="-225.26402"/>
        <path id="path8448" sodipodi:rx="1.0101526" sodipodi:ry="0.9785853" style="fill:#f9f9f9" sodipodi:type="arc" d="m-220.53 150.9c0 0.54045-0.45226 0.97858-1.0102 0.97858-0.55789 0-1.0102-0.43813-1.0102-0.97858 0-0.54046 0.45226-0.97859 1.0102-0.97859 0.55789 0 1.0102 0.43813 1.0102 0.97859z" sodipodi:cy="150.89574" sodipodi:cx="-221.53908"/>
        <path id="path8450" sodipodi:rx="1.0101526" sodipodi:ry="1.0417198" style="fill:#f9f9f9" sodipodi:type="arc" d="m-220.59 146.67c0 0.57532-0.45226 1.0417-1.0102 1.0417-0.55789 0-1.0102-0.4664-1.0102-1.0417 0-0.57533 0.45226-1.0417 1.0102-1.0417 0.55789 0 1.0102 0.46639 1.0102 1.0417z" sodipodi:cy="146.66573" sodipodi:cx="-221.60222"/>
        <path id="path8452" sodipodi:rx="0.94701803" sodipodi:ry="0.88388348" style="fill:#f9f9f9" sodipodi:type="arc" d="m-219.33 143.86c0 0.48816-0.424 0.88389-0.94702 0.88389-0.52303 0-0.94702-0.39573-0.94702-0.88389 0-0.48815 0.42399-0.88388 0.94702-0.88388 0.52302 0 0.94702 0.39573 0.94702 0.88388z" sodipodi:cy="143.85623" sodipodi:cx="-220.27638"/>
        <path id="path8454" sodipodi:rx="0.91545075" sodipodi:ry="0.9785853" style="fill:#f9f9f9" sodipodi:type="arc" d="m-214.15 143.76c0 0.54045-0.40987 0.97858-0.91545 0.97858-0.50559 0-0.91546-0.43813-0.91546-0.97858 0-0.54046 0.40987-0.97859 0.91546-0.97859 0.50558 0 0.91545 0.43813 0.91545 0.97859z" sodipodi:cy="143.76154" sodipodi:cx="-215.06779"/>
        <path id="path8456" sodipodi:rx="0.75761443" sodipodi:ry="0.72604716" style="fill:#f9f9f9" sodipodi:type="arc" d="m-216.05 146.86c0 0.40099-0.3392 0.72605-0.75762 0.72605-0.41841 0-0.75761-0.32506-0.75761-0.72605 0-0.40098 0.3392-0.72604 0.75761-0.72604 0.41842 0 0.75762 0.32506 0.75762 0.72604z" sodipodi:cy="146.85513" sodipodi:cx="-216.80399"/>
      </g>
      <g id="g8458" transform="matrix(-.82171 -.50333 .50333 -.82171 -877.49 63.432)">
        <path id="path8460" sodipodi:nodetypes="sccccccs" style="stroke:#ffffff;stroke-width:1px;fill:#fef202" inkscape:connector-curvature="0" d="m-247.23 146.38c-0.70944-2.9915 2.9534-5.2512 3.8166-7.9125 3.5191-9.6031 15.118-15.569 27.959-9.8034 1.4958 1.3287 2.93 3.4021 5.2856 3.66 6.3771 1.6832 2.311 5.0545 0.97428 7.8645-1.9411 6.8005-7.6076 12.93-13.984 14.657-6.3997 0.82239-14.471-0.66999-19.111-4.8205-1.509-2.2067-4.6654-2.4874-4.94-3.6456z"/>
        <path id="path8462" sodipodi:rx="1.1048543" sodipodi:ry="0.9785853" style="fill:#f9f9f9" sodipodi:type="arc" d="m-227.41 151.53c0 0.54046-0.49466 0.97859-1.1048 0.97859-0.6102 0-1.1049-0.43813-1.1049-0.97859 0-0.54045 0.49466-0.97858 1.1049-0.97858 0.61019 0 1.1048 0.43813 1.1048 0.97858z" sodipodi:cy="151.52708" sodipodi:cx="-228.51544"/>
        <path id="path8464" sodipodi:rx="1.0732871" sodipodi:ry="0.94701803" style="fill:#f9f9f9" sodipodi:type="arc" d="m-224.19 147.71c0 0.52303-0.48052 0.94702-1.0733 0.94702-0.59276 0-1.0733-0.42399-1.0733-0.94702 0-0.52302 0.48053-0.94701 1.0733-0.94701 0.59276 0 1.0733 0.42399 1.0733 0.94701z" sodipodi:cy="147.70744" sodipodi:cx="-225.26402"/>
        <path id="path8466" sodipodi:rx="1.0101526" sodipodi:ry="0.9785853" style="fill:#f9f9f9" sodipodi:type="arc" d="m-220.53 150.9c0 0.54045-0.45226 0.97858-1.0102 0.97858-0.55789 0-1.0102-0.43813-1.0102-0.97858 0-0.54046 0.45226-0.97859 1.0102-0.97859 0.55789 0 1.0102 0.43813 1.0102 0.97859z" sodipodi:cy="150.89574" sodipodi:cx="-221.53908"/>
        <path id="path8468" sodipodi:rx="1.0101526" sodipodi:ry="1.0417198" style="fill:#f9f9f9" sodipodi:type="arc" d="m-220.59 146.67c0 0.57532-0.45226 1.0417-1.0102 1.0417-0.55789 0-1.0102-0.4664-1.0102-1.0417 0-0.57533 0.45226-1.0417 1.0102-1.0417 0.55789 0 1.0102 0.46639 1.0102 1.0417z" sodipodi:cy="146.66573" sodipodi:cx="-221.60222"/>
        <path id="path8470" sodipodi:rx="0.94701803" sodipodi:ry="0.88388348" style="fill:#f9f9f9" sodipodi:type="arc" d="m-219.33 143.86c0 0.48816-0.424 0.88389-0.94702 0.88389-0.52303 0-0.94702-0.39573-0.94702-0.88389 0-0.48815 0.42399-0.88388 0.94702-0.88388 0.52302 0 0.94702 0.39573 0.94702 0.88388z" sodipodi:cy="143.85623" sodipodi:cx="-220.27638"/>
        <path id="path8472" sodipodi:rx="0.91545075" sodipodi:ry="0.9785853" style="fill:#f9f9f9" sodipodi:type="arc" d="m-214.15 143.76c0 0.54045-0.40987 0.97858-0.91545 0.97858-0.50559 0-0.91546-0.43813-0.91546-0.97858 0-0.54046 0.40987-0.97859 0.91546-0.97859 0.50558 0 0.91545 0.43813 0.91545 0.97859z" sodipodi:cy="143.76154" sodipodi:cx="-215.06779"/>
        <path id="path8474" sodipodi:rx="0.75761443" sodipodi:ry="0.72604716" style="fill:#f9f9f9" sodipodi:type="arc" d="m-216.05 146.86c0 0.40099-0.3392 0.72605-0.75762 0.72605-0.41841 0-0.75761-0.32506-0.75761-0.72605 0-0.40098 0.3392-0.72604 0.75761-0.72604 0.41842 0 0.75762 0.32506 0.75762 0.72604z" sodipodi:cy="146.85513" sodipodi:cx="-216.80399"/>
      </g>
      <g id="g8476" transform="matrix(-.91075 -.31478 .31478 -.91075 -833.27 153.54)">
        <path id="path8478" d="m-247.23 146.38c-0.70944-2.9915 2.9534-5.2512 3.8166-7.9125 3.5191-9.6031 15.118-15.569 27.959-9.8034 1.4958 1.3287 2.93 3.4021 5.2856 3.66 6.3771 1.6832 2.311 5.0545 0.97428 7.8645-1.9411 6.8005-7.6076 12.93-13.984 14.657-6.3997 0.82239-14.471-0.66999-19.111-4.8205-1.509-2.2067-4.6654-2.4874-4.94-3.6456z" sodipodi:nodetypes="sccccccs" style="stroke:#ffffff;stroke-width:1px;fill:#fef202" inkscape:connector-curvature="0"/>
        <path id="path8480" sodipodi:rx="1.1048543" sodipodi:ry="0.9785853" style="fill:#f9f9f9" sodipodi:type="arc" d="m-227.41 151.53c0 0.54046-0.49466 0.97859-1.1048 0.97859-0.6102 0-1.1049-0.43813-1.1049-0.97859 0-0.54045 0.49466-0.97858 1.1049-0.97858 0.61019 0 1.1048 0.43813 1.1048 0.97858z" sodipodi:cy="151.52708" sodipodi:cx="-228.51544"/>
        <path id="path8482" sodipodi:rx="1.0732871" sodipodi:ry="0.94701803" style="fill:#f9f9f9" sodipodi:type="arc" d="m-224.19 147.71c0 0.52303-0.48052 0.94702-1.0733 0.94702-0.59276 0-1.0733-0.42399-1.0733-0.94702 0-0.52302 0.48053-0.94701 1.0733-0.94701 0.59276 0 1.0733 0.42399 1.0733 0.94701z" sodipodi:cy="147.70744" sodipodi:cx="-225.26402"/>
        <path id="path8484" sodipodi:rx="1.0101526" sodipodi:ry="0.9785853" style="fill:#f9f9f9" sodipodi:type="arc" d="m-220.53 150.9c0 0.54045-0.45226 0.97858-1.0102 0.97858-0.55789 0-1.0102-0.43813-1.0102-0.97858 0-0.54046 0.45226-0.97859 1.0102-0.97859 0.55789 0 1.0102 0.43813 1.0102 0.97859z" sodipodi:cy="150.89574" sodipodi:cx="-221.53908"/>
        <path id="path8486" sodipodi:rx="1.0101526" sodipodi:ry="1.0417198" style="fill:#f9f9f9" sodipodi:type="arc" d="m-220.59 146.67c0 0.57532-0.45226 1.0417-1.0102 1.0417-0.55789 0-1.0102-0.4664-1.0102-1.0417 0-0.57533 0.45226-1.0417 1.0102-1.0417 0.55789 0 1.0102 0.46639 1.0102 1.0417z" sodipodi:cy="146.66573" sodipodi:cx="-221.60222"/>
        <path id="path8488" sodipodi:rx="0.94701803" sodipodi:ry="0.88388348" style="fill:#f9f9f9" sodipodi:type="arc" d="m-219.33 143.86c0 0.48816-0.424 0.88389-0.94702 0.88389-0.52303 0-0.94702-0.39573-0.94702-0.88389 0-0.48815 0.42399-0.88388 0.94702-0.88388 0.52302 0 0.94702 0.39573 0.94702 0.88388z" sodipodi:cy="143.85623" sodipodi:cx="-220.27638"/>
        <path id="path8490" sodipodi:rx="0.91545075" sodipodi:ry="0.9785853" style="fill:#f9f9f9" sodipodi:type="arc" d="m-214.15 143.76c0 0.54045-0.40987 0.97858-0.91545 0.97858-0.50559 0-0.91546-0.43813-0.91546-0.97858 0-0.54046 0.40987-0.97859 0.91546-0.97859 0.50558 0 0.91545 0.43813 0.91545 0.97859z" sodipodi:cy="143.76154" sodipodi:cx="-215.06779"/>
        <path id="path8492" sodipodi:rx="0.75761443" sodipodi:ry="0.72604716" style="fill:#f9f9f9" sodipodi:type="arc" d="m-216.05 146.86c0 0.40099-0.3392 0.72605-0.75762 0.72605-0.41841 0-0.75761-0.32506-0.75761-0.72605 0-0.40098 0.3392-0.72604 0.75761-0.72604 0.41842 0 0.75762 0.32506 0.75762 0.72604z" sodipodi:cy="146.85513" sodipodi:cx="-216.80399"/>
      </g>
      <path id="path8494" sodipodi:rx="49.642857" sodipodi:ry="49.642857" style="opacity:.64706;fill:#9eca2e" sodipodi:type="arc" d="m-610 82.719c0 27.417-22.226 49.643-49.643 49.643s-49.643-22.226-49.643-49.643 22.226-49.643 49.643-49.643 49.643 22.226 49.643 49.643z" transform="matrix(.67951 0 0 .67951 -35.253 102.33)" sodipodi:cy="82.719322" sodipodi:cx="-659.64288"/>
      <g id="g8496" transform="matrix(.96378 -.26671 .26671 .96378 -325 -36.383)">
        <path id="path8498" sodipodi:nodetypes="sccccccs" style="stroke:#ffffff;stroke-width:1px;fill:#fef202" inkscape:connector-curvature="0" d="m-247.23 146.38c-0.70944-2.9915 2.9534-5.2512 3.8166-7.9125 3.5191-9.6031 15.118-15.569 27.959-9.8034 1.4958 1.3287 2.93 3.4021 5.2856 3.66 6.3771 1.6832 2.311 5.0545 0.97428 7.8645-1.9411 6.8005-7.6076 12.93-13.984 14.657-6.3997 0.82239-14.471-0.66999-19.111-4.8205-1.509-2.2067-4.6654-2.4874-4.94-3.6456z"/>
        <path id="path8500" sodipodi:rx="1.1048543" sodipodi:ry="0.9785853" style="fill:#f9f9f9" sodipodi:type="arc" d="m-227.41 151.53c0 0.54046-0.49466 0.97859-1.1048 0.97859-0.6102 0-1.1049-0.43813-1.1049-0.97859 0-0.54045 0.49466-0.97858 1.1049-0.97858 0.61019 0 1.1048 0.43813 1.1048 0.97858z" sodipodi:cy="151.52708" sodipodi:cx="-228.51544"/>
        <path id="path8502" sodipodi:rx="1.0732871" sodipodi:ry="0.94701803" style="fill:#f9f9f9" sodipodi:type="arc" d="m-224.19 147.71c0 0.52303-0.48052 0.94702-1.0733 0.94702-0.59276 0-1.0733-0.42399-1.0733-0.94702 0-0.52302 0.48053-0.94701 1.0733-0.94701 0.59276 0 1.0733 0.42399 1.0733 0.94701z" sodipodi:cy="147.70744" sodipodi:cx="-225.26402"/>
        <path id="path8504" sodipodi:rx="1.0101526" sodipodi:ry="0.9785853" style="fill:#f9f9f9" sodipodi:type="arc" d="m-220.53 150.9c0 0.54045-0.45226 0.97858-1.0102 0.97858-0.55789 0-1.0102-0.43813-1.0102-0.97858 0-0.54046 0.45226-0.97859 1.0102-0.97859 0.55789 0 1.0102 0.43813 1.0102 0.97859z" sodipodi:cy="150.89574" sodipodi:cx="-221.53908"/>
        <path id="path8506" sodipodi:rx="1.0101526" sodipodi:ry="1.0417198" style="fill:#f9f9f9" sodipodi:type="arc" d="m-220.59 146.67c0 0.57532-0.45226 1.0417-1.0102 1.0417-0.55789 0-1.0102-0.4664-1.0102-1.0417 0-0.57533 0.45226-1.0417 1.0102-1.0417 0.55789 0 1.0102 0.46639 1.0102 1.0417z" sodipodi:cy="146.66573" sodipodi:cx="-221.60222"/>
        <path id="path8508" sodipodi:rx="0.94701803" sodipodi:ry="0.88388348" style="fill:#f9f9f9" sodipodi:type="arc" d="m-219.33 143.86c0 0.48816-0.424 0.88389-0.94702 0.88389-0.52303 0-0.94702-0.39573-0.94702-0.88389 0-0.48815 0.42399-0.88388 0.94702-0.88388 0.52302 0 0.94702 0.39573 0.94702 0.88388z" sodipodi:cy="143.85623" sodipodi:cx="-220.27638"/>
        <path id="path8510" sodipodi:rx="0.91545075" sodipodi:ry="0.9785853" style="fill:#f9f9f9" sodipodi:type="arc" d="m-214.15 143.76c0 0.54045-0.40987 0.97858-0.91545 0.97858-0.50559 0-0.91546-0.43813-0.91546-0.97858 0-0.54046 0.40987-0.97859 0.91546-0.97859 0.50558 0 0.91545 0.43813 0.91545 0.97859z" sodipodi:cy="143.76154" sodipodi:cx="-215.06779"/>
        <path id="path8512" sodipodi:rx="0.75761443" sodipodi:ry="0.72604716" style="fill:#f9f9f9" sodipodi:type="arc" d="m-216.05 146.86c0 0.40099-0.3392 0.72605-0.75762 0.72605-0.41841 0-0.75761-0.32506-0.75761-0.72605 0-0.40098 0.3392-0.72604 0.75761-0.72604 0.41842 0 0.75762 0.32506 0.75762 0.72604z" sodipodi:cy="146.85513" sodipodi:cx="-216.80399"/>
      </g>
      <g id="g8514" transform="matrix(.77892 .62712 -.62712 .77892 -181.58 189)">
        <path id="path8516" sodipodi:nodetypes="sccccccs" style="stroke:#ffffff;stroke-width:1px;fill:#fef202" inkscape:connector-curvature="0" d="m-247.23 146.38c-0.70944-2.9915 2.9534-5.2512 3.8166-7.9125 3.5191-9.6031 15.118-15.569 27.959-9.8034 1.4958 1.3287 2.93 3.4021 5.2856 3.66 6.3771 1.6832 2.311 5.0545 0.97428 7.8645-1.9411 6.8005-7.6076 12.93-13.984 14.657-6.3997 0.82239-14.471-0.66999-19.111-4.8205-1.509-2.2067-4.6654-2.4874-4.94-3.6456z"/>
        <path id="path8518" sodipodi:rx="1.1048543" sodipodi:ry="0.9785853" style="fill:#f9f9f9" sodipodi:type="arc" d="m-227.41 151.53c0 0.54046-0.49466 0.97859-1.1048 0.97859-0.6102 0-1.1049-0.43813-1.1049-0.97859 0-0.54045 0.49466-0.97858 1.1049-0.97858 0.61019 0 1.1048 0.43813 1.1048 0.97858z" sodipodi:cy="151.52708" sodipodi:cx="-228.51544"/>
        <path id="path8520" sodipodi:rx="1.0732871" sodipodi:ry="0.94701803" style="fill:#f9f9f9" sodipodi:type="arc" d="m-224.19 147.71c0 0.52303-0.48052 0.94702-1.0733 0.94702-0.59276 0-1.0733-0.42399-1.0733-0.94702 0-0.52302 0.48053-0.94701 1.0733-0.94701 0.59276 0 1.0733 0.42399 1.0733 0.94701z" sodipodi:cy="147.70744" sodipodi:cx="-225.26402"/>
        <path id="path8522" sodipodi:rx="1.0101526" sodipodi:ry="0.9785853" style="fill:#f9f9f9" sodipodi:type="arc" d="m-220.53 150.9c0 0.54045-0.45226 0.97858-1.0102 0.97858-0.55789 0-1.0102-0.43813-1.0102-0.97858 0-0.54046 0.45226-0.97859 1.0102-0.97859 0.55789 0 1.0102 0.43813 1.0102 0.97859z" sodipodi:cy="150.89574" sodipodi:cx="-221.53908"/>
        <path id="path8524" sodipodi:rx="1.0101526" sodipodi:ry="1.0417198" style="fill:#f9f9f9" sodipodi:type="arc" d="m-220.59 146.67c0 0.57532-0.45226 1.0417-1.0102 1.0417-0.55789 0-1.0102-0.4664-1.0102-1.0417 0-0.57533 0.45226-1.0417 1.0102-1.0417 0.55789 0 1.0102 0.46639 1.0102 1.0417z" sodipodi:cy="146.66573" sodipodi:cx="-221.60222"/>
        <path id="path8526" sodipodi:rx="0.94701803" sodipodi:ry="0.88388348" style="fill:#f9f9f9" sodipodi:type="arc" d="m-219.33 143.86c0 0.48816-0.424 0.88389-0.94702 0.88389-0.52303 0-0.94702-0.39573-0.94702-0.88389 0-0.48815 0.42399-0.88388 0.94702-0.88388 0.52302 0 0.94702 0.39573 0.94702 0.88388z" sodipodi:cy="143.85623" sodipodi:cx="-220.27638"/>
        <path id="path8528" sodipodi:rx="0.91545075" sodipodi:ry="0.9785853" style="fill:#f9f9f9" sodipodi:type="arc" d="m-214.15 143.76c0 0.54045-0.40987 0.97858-0.91545 0.97858-0.50559 0-0.91546-0.43813-0.91546-0.97858 0-0.54046 0.40987-0.97859 0.91546-0.97859 0.50558 0 0.91545 0.43813 0.91545 0.97859z" sodipodi:cy="143.76154" sodipodi:cx="-215.06779"/>
        <path id="path8530" sodipodi:rx="0.75761443" sodipodi:ry="0.72604716" style="fill:#f9f9f9" sodipodi:type="arc" d="m-216.05 146.86c0 0.40099-0.3392 0.72605-0.75762 0.72605-0.41841 0-0.75761-0.32506-0.75761-0.72605 0-0.40098 0.3392-0.72604 0.75761-0.72604 0.41842 0 0.75762 0.32506 0.75762 0.72604z" sodipodi:cy="146.85513" sodipodi:cx="-216.80399"/>
      </g>
      <g id="g8532" transform="matrix(.88778 .46027 -.46027 .88778 -132.87 76.711)">
        <path id="path8534" sodipodi:nodetypes="sccccccs" style="stroke:#ffffff;stroke-width:1px;fill:#fef202" inkscape:connector-curvature="0" d="m-247.23 146.38c-0.70944-2.9915 2.9534-5.2512 3.8166-7.9125 3.5191-9.6031 15.118-15.569 27.959-9.8034 1.4958 1.3287 2.93 3.4021 5.2856 3.66 6.3771 1.6832 2.311 5.0545 0.97428 7.8645-1.9411 6.8005-7.6076 12.93-13.984 14.657-6.3997 0.82239-14.471-0.66999-19.111-4.8205-1.509-2.2067-4.6654-2.4874-4.94-3.6456z"/>
        <path id="path8536" sodipodi:rx="1.1048543" sodipodi:ry="0.9785853" style="fill:#f9f9f9" sodipodi:type="arc" d="m-227.41 151.53c0 0.54046-0.49466 0.97859-1.1048 0.97859-0.6102 0-1.1049-0.43813-1.1049-0.97859 0-0.54045 0.49466-0.97858 1.1049-0.97858 0.61019 0 1.1048 0.43813 1.1048 0.97858z" sodipodi:cy="151.52708" sodipodi:cx="-228.51544"/>
        <path id="path8538" sodipodi:rx="1.0732871" sodipodi:ry="0.94701803" style="fill:#f9f9f9" sodipodi:type="arc" d="m-224.19 147.71c0 0.52303-0.48052 0.94702-1.0733 0.94702-0.59276 0-1.0733-0.42399-1.0733-0.94702 0-0.52302 0.48053-0.94701 1.0733-0.94701 0.59276 0 1.0733 0.42399 1.0733 0.94701z" sodipodi:cy="147.70744" sodipodi:cx="-225.26402"/>
        <path id="path8540" sodipodi:rx="1.0101526" sodipodi:ry="0.9785853" style="fill:#f9f9f9" sodipodi:type="arc" d="m-220.53 150.9c0 0.54045-0.45226 0.97858-1.0102 0.97858-0.55789 0-1.0102-0.43813-1.0102-0.97858 0-0.54046 0.45226-0.97859 1.0102-0.97859 0.55789 0 1.0102 0.43813 1.0102 0.97859z" sodipodi:cy="150.89574" sodipodi:cx="-221.53908"/>
        <path id="path8542" sodipodi:rx="1.0101526" sodipodi:ry="1.0417198" style="fill:#f9f9f9" sodipodi:type="arc" d="m-220.59 146.67c0 0.57532-0.45226 1.0417-1.0102 1.0417-0.55789 0-1.0102-0.4664-1.0102-1.0417 0-0.57533 0.45226-1.0417 1.0102-1.0417 0.55789 0 1.0102 0.46639 1.0102 1.0417z" sodipodi:cy="146.66573" sodipodi:cx="-221.60222"/>
        <path id="path8544" sodipodi:rx="0.94701803" sodipodi:ry="0.88388348" style="fill:#f9f9f9" sodipodi:type="arc" d="m-219.33 143.86c0 0.48816-0.424 0.88389-0.94702 0.88389-0.52303 0-0.94702-0.39573-0.94702-0.88389 0-0.48815 0.42399-0.88388 0.94702-0.88388 0.52302 0 0.94702 0.39573 0.94702 0.88388z" sodipodi:cy="143.85623" sodipodi:cx="-220.27638"/>
        <path id="path8546" sodipodi:rx="0.91545075" sodipodi:ry="0.9785853" style="fill:#f9f9f9" sodipodi:type="arc" d="m-214.15 143.76c0 0.54045-0.40987 0.97858-0.91545 0.97858-0.50559 0-0.91546-0.43813-0.91546-0.97858 0-0.54046 0.40987-0.97859 0.91546-0.97859 0.50558 0 0.91545 0.43813 0.91545 0.97859z" sodipodi:cy="143.76154" sodipodi:cx="-215.06779"/>
        <path id="path8548" sodipodi:rx="0.75761443" sodipodi:ry="0.72604716" style="fill:#f9f9f9" sodipodi:type="arc" d="m-216.05 146.86c0 0.40099-0.3392 0.72605-0.75762 0.72605-0.41841 0-0.75761-0.32506-0.75761-0.72605 0-0.40098 0.3392-0.72604 0.75761-0.72604 0.41842 0 0.75762 0.32506 0.75762 0.72604z" sodipodi:cy="146.85513" sodipodi:cx="-216.80399"/>
      </g>
      <g id="g8550" transform="translate(-231.77 -22.352)">
        <path id="path8552" sodipodi:nodetypes="sccccccs" style="stroke:#ffffff;stroke-width:1px;fill:#fef202" inkscape:connector-curvature="0" d="m-247.23 146.38c-0.70944-2.9915 2.9534-5.2512 3.8166-7.9125 3.5191-9.6031 15.118-15.569 27.959-9.8034 1.4958 1.3287 2.93 3.4021 5.2856 3.66 6.3771 1.6832 2.311 5.0545 0.97428 7.8645-1.9411 6.8005-7.6076 12.93-13.984 14.657-6.3997 0.82239-14.471-0.66999-19.111-4.8205-1.509-2.2067-4.6654-2.4874-4.94-3.6456z"/>
        <path id="path8554" sodipodi:rx="1.1048543" sodipodi:ry="0.9785853" style="fill:#f9f9f9" sodipodi:type="arc" d="m-227.41 151.53c0 0.54046-0.49466 0.97859-1.1048 0.97859-0.6102 0-1.1049-0.43813-1.1049-0.97859 0-0.54045 0.49466-0.97858 1.1049-0.97858 0.61019 0 1.1048 0.43813 1.1048 0.97858z" sodipodi:cy="151.52708" sodipodi:cx="-228.51544"/>
        <path id="path8556" sodipodi:rx="1.0732871" sodipodi:ry="0.94701803" style="fill:#f9f9f9" sodipodi:type="arc" d="m-224.19 147.71c0 0.52303-0.48052 0.94702-1.0733 0.94702-0.59276 0-1.0733-0.42399-1.0733-0.94702 0-0.52302 0.48053-0.94701 1.0733-0.94701 0.59276 0 1.0733 0.42399 1.0733 0.94701z" sodipodi:cy="147.70744" sodipodi:cx="-225.26402"/>
        <path id="path8558" sodipodi:rx="1.0101526" sodipodi:ry="0.9785853" style="fill:#f9f9f9" sodipodi:type="arc" d="m-220.53 150.9c0 0.54045-0.45226 0.97858-1.0102 0.97858-0.55789 0-1.0102-0.43813-1.0102-0.97858 0-0.54046 0.45226-0.97859 1.0102-0.97859 0.55789 0 1.0102 0.43813 1.0102 0.97859z" sodipodi:cy="150.89574" sodipodi:cx="-221.53908"/>
        <path id="path8560" sodipodi:rx="1.0101526" sodipodi:ry="1.0417198" style="fill:#f9f9f9" sodipodi:type="arc" d="m-220.59 146.67c0 0.57532-0.45226 1.0417-1.0102 1.0417-0.55789 0-1.0102-0.4664-1.0102-1.0417 0-0.57533 0.45226-1.0417 1.0102-1.0417 0.55789 0 1.0102 0.46639 1.0102 1.0417z" sodipodi:cy="146.66573" sodipodi:cx="-221.60222"/>
        <path id="path8562" sodipodi:rx="0.94701803" sodipodi:ry="0.88388348" style="fill:#f9f9f9" sodipodi:type="arc" d="m-219.33 143.86c0 0.48816-0.424 0.88389-0.94702 0.88389-0.52303 0-0.94702-0.39573-0.94702-0.88389 0-0.48815 0.42399-0.88388 0.94702-0.88388 0.52302 0 0.94702 0.39573 0.94702 0.88388z" sodipodi:cy="143.85623" sodipodi:cx="-220.27638"/>
        <path id="path8564" sodipodi:rx="0.91545075" sodipodi:ry="0.9785853" style="fill:#f9f9f9" sodipodi:type="arc" d="m-214.15 143.76c0 0.54045-0.40987 0.97858-0.91545 0.97858-0.50559 0-0.91546-0.43813-0.91546-0.97858 0-0.54046 0.40987-0.97859 0.91546-0.97859 0.50558 0 0.91545 0.43813 0.91545 0.97859z" sodipodi:cy="143.76154" sodipodi:cx="-215.06779"/>
        <path id="path8566" sodipodi:rx="0.75761443" sodipodi:ry="0.72604716" style="fill:#f9f9f9" sodipodi:type="arc" d="m-216.05 146.86c0 0.40099-0.3392 0.72605-0.75762 0.72605-0.41841 0-0.75761-0.32506-0.75761-0.72605 0-0.40098 0.3392-0.72604 0.75761-0.72604 0.41842 0 0.75762 0.32506 0.75762 0.72604z" sodipodi:cy="146.85513" sodipodi:cx="-216.80399"/>
      </g>
      <path id="path8568" sodipodi:rx="49.642857" sodipodi:ry="49.642857" style="opacity:.64706;fill:#9eca2e" sodipodi:type="arc" d="m-610 82.719c0 27.417-22.226 49.643-49.643 49.643s-49.643-22.226-49.643-49.643 22.226-49.643 49.643-49.643 49.643 22.226 49.643 49.643z" transform="matrix(.78634 0 0 .78634 71.605 6.2959)" sodipodi:cy="82.719322" sodipodi:cx="-659.64288"/>
      <g id="g8570" transform="matrix(.71161 .70258 -.70258 .71161 -251.39 100.45)">
        <path id="path8572" sodipodi:nodetypes="sccccccs" style="stroke:#ffffff;stroke-width:1px;fill:#fef202" inkscape:connector-curvature="0" d="m-247.23 146.38c-0.70944-2.9915 2.9534-5.2512 3.8166-7.9125 3.5191-9.6031 15.118-15.569 27.959-9.8034 1.4958 1.3287 2.93 3.4021 5.2856 3.66 6.3771 1.6832 2.311 5.0545 0.97428 7.8645-1.9411 6.8005-7.6076 12.93-13.984 14.657-6.3997 0.82239-14.471-0.66999-19.111-4.8205-1.509-2.2067-4.6654-2.4874-4.94-3.6456z"/>
        <path id="path8574" sodipodi:rx="1.1048543" sodipodi:ry="0.9785853" style="fill:#f9f9f9" sodipodi:type="arc" d="m-227.41 151.53c0 0.54046-0.49466 0.97859-1.1048 0.97859-0.6102 0-1.1049-0.43813-1.1049-0.97859 0-0.54045 0.49466-0.97858 1.1049-0.97858 0.61019 0 1.1048 0.43813 1.1048 0.97858z" sodipodi:cy="151.52708" sodipodi:cx="-228.51544"/>
        <path id="path8576" sodipodi:rx="1.0732871" sodipodi:ry="0.94701803" style="fill:#f9f9f9" sodipodi:type="arc" d="m-224.19 147.71c0 0.52303-0.48052 0.94702-1.0733 0.94702-0.59276 0-1.0733-0.42399-1.0733-0.94702 0-0.52302 0.48053-0.94701 1.0733-0.94701 0.59276 0 1.0733 0.42399 1.0733 0.94701z" sodipodi:cy="147.70744" sodipodi:cx="-225.26402"/>
        <path id="path8578" sodipodi:rx="1.0101526" sodipodi:ry="0.9785853" style="fill:#f9f9f9" sodipodi:type="arc" d="m-220.53 150.9c0 0.54045-0.45226 0.97858-1.0102 0.97858-0.55789 0-1.0102-0.43813-1.0102-0.97858 0-0.54046 0.45226-0.97859 1.0102-0.97859 0.55789 0 1.0102 0.43813 1.0102 0.97859z" sodipodi:cy="150.89574" sodipodi:cx="-221.53908"/>
        <path id="path8580" sodipodi:rx="1.0101526" sodipodi:ry="1.0417198" style="fill:#f9f9f9" sodipodi:type="arc" d="m-220.59 146.67c0 0.57532-0.45226 1.0417-1.0102 1.0417-0.55789 0-1.0102-0.4664-1.0102-1.0417 0-0.57533 0.45226-1.0417 1.0102-1.0417 0.55789 0 1.0102 0.46639 1.0102 1.0417z" sodipodi:cy="146.66573" sodipodi:cx="-221.60222"/>
        <path id="path8582" sodipodi:rx="0.94701803" sodipodi:ry="0.88388348" style="fill:#f9f9f9" sodipodi:type="arc" d="m-219.33 143.86c0 0.48816-0.424 0.88389-0.94702 0.88389-0.52303 0-0.94702-0.39573-0.94702-0.88389 0-0.48815 0.42399-0.88388 0.94702-0.88388 0.52302 0 0.94702 0.39573 0.94702 0.88388z" sodipodi:cy="143.85623" sodipodi:cx="-220.27638"/>
        <path id="path8584" sodipodi:rx="0.91545075" sodipodi:ry="0.9785853" style="fill:#f9f9f9" sodipodi:type="arc" d="m-214.15 143.76c0 0.54045-0.40987 0.97858-0.91545 0.97858-0.50559 0-0.91546-0.43813-0.91546-0.97858 0-0.54046 0.40987-0.97859 0.91546-0.97859 0.50558 0 0.91545 0.43813 0.91545 0.97859z" sodipodi:cy="143.76154" sodipodi:cx="-215.06779"/>
        <path id="path8586" sodipodi:rx="0.75761443" sodipodi:ry="0.72604716" style="fill:#f9f9f9" sodipodi:type="arc" d="m-216.05 146.86c0 0.40099-0.3392 0.72605-0.75762 0.72605-0.41841 0-0.75761-0.32506-0.75761-0.72605 0-0.40098 0.3392-0.72604 0.75761-0.72604 0.41842 0 0.75762 0.32506 0.75762 0.72604z" sodipodi:cy="146.85513" sodipodi:cx="-216.80399"/>
      </g>
      <g id="g8588" transform="matrix(-.44598 -.89504 .89504 -.44598 -596.31 -295.66)">
        <path id="path8590" sodipodi:nodetypes="csccc" style="fill:#81be25" inkscape:connector-curvature="0" d="m-362.14 51.869c8.4503 6.4792 13.761 2.5334 17.609 0.0034 4.9386-3.2464 7.8821-15.823 7.8821-15.823s-13.907-3.1738-21.07 0.17483c-4.5321 2.6466-6.2784 10.09-4.422 15.645z"/>
        <g id="g8592" style="stroke:#60b130;fill:#60b130">
          <path id="path8594" sodipodi:nodetypes="cc" d="m-361.52 50.666c6.4583-5.6653 12.917-9.1752 19.375-12.5" style="stroke:#60b130;stroke-linecap:round;stroke-width:1px;fill:#60b130" inkscape:connector-curvature="0"/>
          <path id="path8596" sodipodi:nodetypes="cc" d="m-351.25 43.076c3.2714-0.2059 5.746 0.38491 7.5893 1.6071" style="stroke:#60b130;stroke-linecap:round;stroke-width:1px;fill:#60b130" inkscape:connector-curvature="0"/>
          <path id="path8598" sodipodi:nodetypes="cc" d="m-355.71 46.38c5.8099 1.3413 5.7964 2.3591 7.6786 3.4821" style="stroke:#60b130;stroke-linecap:round;stroke-width:1px;fill:#60b130" inkscape:connector-curvature="0"/>
          <path id="path8600" sodipodi:nodetypes="cc" d="m-352.41 43.701c1.1248-2.7176 0.88177-4.6535 0.35715-6.4286" style="stroke:#60b130;stroke-linecap:round;stroke-width:1px;fill:#60b130" inkscape:connector-curvature="0"/>
        </g>
      </g>
      <g id="g8602" transform="translate(-116.42 -18.445)">
        <path id="path8604" sodipodi:nodetypes="csccc" style="fill:#81be25" inkscape:connector-curvature="0" d="m-362.14 51.869c8.4503 6.4792 13.761 2.5334 17.609 0.0034 4.9386-3.2464 7.8821-15.823 7.8821-15.823s-13.907-3.1738-21.07 0.17483c-4.5321 2.6466-6.2784 10.09-4.422 15.645z"/>
        <g id="g8606" style="stroke:#60b130;fill:#60b130">
          <path id="path8608" sodipodi:nodetypes="cc" d="m-361.52 50.666c6.4583-5.6653 12.917-9.1752 19.375-12.5" style="stroke:#60b130;stroke-linecap:round;stroke-width:1px;fill:#60b130" inkscape:connector-curvature="0"/>
          <path id="path8610" sodipodi:nodetypes="cc" d="m-351.25 43.076c3.2714-0.2059 5.746 0.38491 7.5893 1.6071" style="stroke:#60b130;stroke-linecap:round;stroke-width:1px;fill:#60b130" inkscape:connector-curvature="0"/>
          <path id="path8612" sodipodi:nodetypes="cc" d="m-355.71 46.38c5.8099 1.3413 5.7964 2.3591 7.6786 3.4821" style="stroke:#60b130;stroke-linecap:round;stroke-width:1px;fill:#60b130" inkscape:connector-curvature="0"/>
          <path id="path8614" sodipodi:nodetypes="cc" d="m-352.41 43.701c1.1248-2.7176 0.88177-4.6535 0.35715-6.4286" style="stroke:#60b130;stroke-linecap:round;stroke-width:1px;fill:#60b130" inkscape:connector-curvature="0"/>
        </g>
      </g>
      <path id="path8616" sodipodi:rx="49.642857" sodipodi:ry="49.642857" style="opacity:.64706;fill:#9eca2e" sodipodi:type="arc" d="m-610 82.719c0 27.417-22.226 49.643-49.643 49.643s-49.643-22.226-49.643-49.643 22.226-49.643 49.643-49.643 49.643 22.226 49.643 49.643z" transform="matrix(.78634 0 0 .78634 -97.681 -19.418)" sodipodi:cy="82.719322" sodipodi:cx="-659.64288"/>
      <g id="g8618" transform="translate(-230.06 -20.971)">
        <path id="path8620" d="m-362.14 51.869c8.4503 6.4792 13.761 2.5334 17.609 0.0034 4.9386-3.2464 7.8821-15.823 7.8821-15.823s-13.907-3.1738-21.07 0.17483c-4.5321 2.6466-6.2784 10.09-4.422 15.645z" sodipodi:nodetypes="csccc" style="fill:#81be25" inkscape:connector-curvature="0"/>
        <g id="g8622" style="stroke:#60b130;fill:#60b130">
          <path id="path8624" sodipodi:nodetypes="cc" inkscape:connector-curvature="0" style="stroke:#60b130;stroke-linecap:round;stroke-width:1px;fill:#60b130" d="m-361.52 50.666c6.4583-5.6653 12.917-9.1752 19.375-12.5"/>
          <path id="path8626" sodipodi:nodetypes="cc" inkscape:connector-curvature="0" style="stroke:#60b130;stroke-linecap:round;stroke-width:1px;fill:#60b130" d="m-351.25 43.076c3.2714-0.2059 5.746 0.38491 7.5893 1.6071"/>
          <path id="path8628" sodipodi:nodetypes="cc" inkscape:connector-curvature="0" style="stroke:#60b130;stroke-linecap:round;stroke-width:1px;fill:#60b130" d="m-355.71 46.38c5.8099 1.3413 5.7964 2.3591 7.6786 3.4821"/>
          <path id="path8630" sodipodi:nodetypes="cc" inkscape:connector-curvature="0" style="stroke:#60b130;stroke-linecap:round;stroke-width:1px;fill:#60b130" d="m-352.41 43.701c1.1248-2.7176 0.88177-4.6535 0.35715-6.4286"/>
        </g>
      </g>
      <g id="g8632" transform="matrix(.12595 -.99204 .99204 .12595 -593.58 -378.07)">
        <path id="path8634" sodipodi:nodetypes="csccc" style="fill:#81be25" inkscape:connector-curvature="0" d="m-362.14 51.869c8.4503 6.4792 13.761 2.5334 17.609 0.0034 4.9386-3.2464 7.8821-15.823 7.8821-15.823s-13.907-3.1738-21.07 0.17483c-4.5321 2.6466-6.2784 10.09-4.422 15.645z"/>
        <g id="g8636" style="stroke:#60b130;fill:#60b130">
          <path id="path8638" sodipodi:nodetypes="cc" d="m-361.52 50.666c6.4583-5.6653 12.917-9.1752 19.375-12.5" style="stroke:#60b130;stroke-linecap:round;stroke-width:1px;fill:#60b130" inkscape:connector-curvature="0"/>
          <path id="path8640" sodipodi:nodetypes="cc" d="m-351.25 43.076c3.2714-0.2059 5.746 0.38491 7.5893 1.6071" style="stroke:#60b130;stroke-linecap:round;stroke-width:1px;fill:#60b130" inkscape:connector-curvature="0"/>
          <path id="path8642" sodipodi:nodetypes="cc" d="m-355.71 46.38c5.8099 1.3413 5.7964 2.3591 7.6786 3.4821" style="stroke:#60b130;stroke-linecap:round;stroke-width:1px;fill:#60b130" inkscape:connector-curvature="0"/>
          <path id="path8644" sodipodi:nodetypes="cc" d="m-352.41 43.701c1.1248-2.7176 0.88177-4.6535 0.35715-6.4286" style="stroke:#60b130;stroke-linecap:round;stroke-width:1px;fill:#60b130" inkscape:connector-curvature="0"/>
        </g>
      </g>
      <g id="g8646" transform="matrix(.79367 -.60834 .60834 .79367 -397.64 -231.45)">
        <path id="path8648" d="m-362.14 51.869c8.4503 6.4792 13.761 2.5334 17.609 0.0034 4.9386-3.2464 7.8821-15.823 7.8821-15.823s-13.907-3.1738-21.07 0.17483c-4.5321 2.6466-6.2784 10.09-4.422 15.645z" sodipodi:nodetypes="csccc" style="fill:#81be25" inkscape:connector-curvature="0"/>
        <g id="g8650" style="stroke:#60b130;fill:#60b130">
          <path id="path8652" sodipodi:nodetypes="cc" inkscape:connector-curvature="0" style="stroke:#60b130;stroke-linecap:round;stroke-width:1px;fill:#60b130" d="m-361.52 50.666c6.4583-5.6653 12.917-9.1752 19.375-12.5"/>
          <path id="path8654" sodipodi:nodetypes="cc" inkscape:connector-curvature="0" style="stroke:#60b130;stroke-linecap:round;stroke-width:1px;fill:#60b130" d="m-351.25 43.076c3.2714-0.2059 5.746 0.38491 7.5893 1.6071"/>
          <path id="path8656" sodipodi:nodetypes="cc" inkscape:connector-curvature="0" style="stroke:#60b130;stroke-linecap:round;stroke-width:1px;fill:#60b130" d="m-355.71 46.38c5.8099 1.3413 5.7964 2.3591 7.6786 3.4821"/>
          <path id="path8658" sodipodi:nodetypes="cc" inkscape:connector-curvature="0" style="stroke:#60b130;stroke-linecap:round;stroke-width:1px;fill:#60b130" d="m-352.41 43.701c1.1248-2.7176 0.88177-4.6535 0.35715-6.4286"/>
        </g>
      </g>
      <g id="g8660" transform="matrix(-.31150 -.95024 .95024 -.31150 -609.34 -239.7)">
        <path id="path8662" sodipodi:nodetypes="csccc" style="fill:#81be25" inkscape:connector-curvature="0" d="m-362.14 51.869c8.4503 6.4792 13.761 2.5334 17.609 0.0034 4.9386-3.2464 7.8821-15.823 7.8821-15.823s-13.907-3.1738-21.07 0.17483c-4.5321 2.6466-6.2784 10.09-4.422 15.645z"/>
        <g id="g8664" style="stroke:#60b130;fill:#60b130">
          <path id="path8666" sodipodi:nodetypes="cc" d="m-361.52 50.666c6.4583-5.6653 12.917-9.1752 19.375-12.5" style="stroke:#60b130;stroke-linecap:round;stroke-width:1px;fill:#60b130" inkscape:connector-curvature="0"/>
          <path id="path8668" sodipodi:nodetypes="cc" d="m-351.25 43.076c3.2714-0.2059 5.746 0.38491 7.5893 1.6071" style="stroke:#60b130;stroke-linecap:round;stroke-width:1px;fill:#60b130" inkscape:connector-curvature="0"/>
          <path id="path8670" sodipodi:nodetypes="cc" d="m-355.71 46.38c5.8099 1.3413 5.7964 2.3591 7.6786 3.4821" style="stroke:#60b130;stroke-linecap:round;stroke-width:1px;fill:#60b130" inkscape:connector-curvature="0"/>
          <path id="path8672" sodipodi:nodetypes="cc" d="m-352.41 43.701c1.1248-2.7176 0.88177-4.6535 0.35715-6.4286" style="stroke:#60b130;stroke-linecap:round;stroke-width:1px;fill:#60b130" inkscape:connector-curvature="0"/>
        </g>
      </g>
      <g id="g8674" transform="matrix(-.44162 -.89720 .89720 -.44162 -711.56 -313.78)">
        <path id="path8676" sodipodi:nodetypes="csccc" style="fill:#81be25" inkscape:connector-curvature="0" d="m-362.14 51.869c8.4503 6.4792 13.761 2.5334 17.609 0.0034 4.9386-3.2464 7.8821-15.823 7.8821-15.823s-13.907-3.1738-21.07 0.17483c-4.5321 2.6466-6.2784 10.09-4.422 15.645z"/>
        <g id="g8678" style="stroke:#60b130;fill:#60b130">
          <path id="path8680" sodipodi:nodetypes="cc" d="m-361.52 50.666c6.4583-5.6653 12.917-9.1752 19.375-12.5" style="stroke:#60b130;stroke-linecap:round;stroke-width:1px;fill:#60b130" inkscape:connector-curvature="0"/>
          <path id="path8682" sodipodi:nodetypes="cc" d="m-351.25 43.076c3.2714-0.2059 5.746 0.38491 7.5893 1.6071" style="stroke:#60b130;stroke-linecap:round;stroke-width:1px;fill:#60b130" inkscape:connector-curvature="0"/>
          <path id="path8684" sodipodi:nodetypes="cc" d="m-355.71 46.38c5.8099 1.3413 5.7964 2.3591 7.6786 3.4821" style="stroke:#60b130;stroke-linecap:round;stroke-width:1px;fill:#60b130" inkscape:connector-curvature="0"/>
          <path id="path8686" sodipodi:nodetypes="cc" d="m-352.41 43.701c1.1248-2.7176 0.88177-4.6535 0.35715-6.4286" style="stroke:#60b130;stroke-linecap:round;stroke-width:1px;fill:#60b130" inkscape:connector-curvature="0"/>
        </g>
      </g>
      <path id="path8688" sodipodi:rx="49.642857" sodipodi:ry="49.642857" style="opacity:.64706;fill:#9eca2e" sodipodi:type="arc" d="m-610 82.719c0 27.417-22.226 49.643-49.643 49.643s-49.643-22.226-49.643-49.643 22.226-49.643 49.643-49.643 49.643 22.226 49.643 49.643z" transform="matrix(.34749 0 0 .34749 -284.66 -24.903)" sodipodi:cy="82.719322" sodipodi:cx="-659.64288"/>
      <path id="path8690" sodipodi:rx="49.642857" sodipodi:ry="49.642857" style="opacity:.64706;fill:#9eca2e" sodipodi:type="arc" d="m-610 82.719c0 27.417-22.226 49.643-49.643 49.643s-49.643-22.226-49.643-49.643 22.226-49.643 49.643-49.643 49.643 22.226 49.643 49.643z" transform="matrix(.67443 0 0 .67443 -124.01 -77.024)" sodipodi:cy="82.719322" sodipodi:cx="-659.64288"/>
      <path id="path8692" sodipodi:nodetypes="ccccccccccccccccccc" style="fill:#c59845" inkscape:connector-curvature="0" d="m-573.2 235.27 8.5863-7.8287 3.283-51.77-83.338-77.529 6.0609-4.5457 78.539 66.165 5.0508-80.56-53.286-42.931 2.2728-2.2728 51.518 33.84 4.7982-76.519h5.3033l10.668 133.97 70.242-58.257 2.5254 3.5355-71.818 73.034 5.8084 83.59 10.102 9.5964c-18.772 4.5204-37.544 5.3594-56.316-1.5152z"/>
      <g id="g8694" transform="translate(-62.877 -.76760)">
        <path id="path8696" sodipodi:nodetypes="csccc" style="fill:#81be25" inkscape:connector-curvature="0" d="m-362.14 51.869c8.4503 6.4792 13.761 2.5334 17.609 0.0034 4.9386-3.2464 7.8821-15.823 7.8821-15.823s-13.907-3.1738-21.07 0.17483c-4.5321 2.6466-6.2784 10.09-4.422 15.645z"/>
        <g id="g8698" style="stroke:#60b130;fill:#60b130">
          <path id="path8700" sodipodi:nodetypes="cc" d="m-361.52 50.666c6.4583-5.6653 12.917-9.1752 19.375-12.5" style="stroke:#60b130;stroke-linecap:round;stroke-width:1px;fill:#60b130" inkscape:connector-curvature="0"/>
          <path id="path8702" sodipodi:nodetypes="cc" d="m-351.25 43.076c3.2714-0.2059 5.746 0.38491 7.5893 1.6071" style="stroke:#60b130;stroke-linecap:round;stroke-width:1px;fill:#60b130" inkscape:connector-curvature="0"/>
          <path id="path8704" sodipodi:nodetypes="cc" d="m-355.71 46.38c5.8099 1.3413 5.7964 2.3591 7.6786 3.4821" style="stroke:#60b130;stroke-linecap:round;stroke-width:1px;fill:#60b130" inkscape:connector-curvature="0"/>
          <path id="path8706" sodipodi:nodetypes="cc" d="m-352.41 43.701c1.1248-2.7176 0.88177-4.6535 0.35715-6.4286" style="stroke:#60b130;stroke-linecap:round;stroke-width:1px;fill:#60b130" inkscape:connector-curvature="0"/>
        </g>
      </g>
      <g id="g8708" transform="matrix(-.88523 .38067 -.38067 -.88523 -671.9 298.62)">
        <path id="path8710" sodipodi:nodetypes="sccccccs" style="stroke:#ffffff;stroke-width:1px;fill:#fef202" inkscape:connector-curvature="0" d="m-247.23 146.38c-0.70944-2.9915 2.9534-5.2512 3.8166-7.9125 3.5191-9.6031 15.118-15.569 27.959-9.8034 1.4958 1.3287 2.93 3.4021 5.2856 3.66 6.3771 1.6832 2.311 5.0545 0.97428 7.8645-1.9411 6.8005-7.6076 12.93-13.984 14.657-6.3997 0.82239-14.471-0.66999-19.111-4.8205-1.509-2.2067-4.6654-2.4874-4.94-3.6456z"/>
        <path id="path8712" sodipodi:rx="1.1048543" sodipodi:ry="0.9785853" style="fill:#f9f9f9" sodipodi:type="arc" d="m-227.41 151.53c0 0.54046-0.49466 0.97859-1.1048 0.97859-0.6102 0-1.1049-0.43813-1.1049-0.97859 0-0.54045 0.49466-0.97858 1.1049-0.97858 0.61019 0 1.1048 0.43813 1.1048 0.97858z" sodipodi:cy="151.52708" sodipodi:cx="-228.51544"/>
        <path id="path8714" sodipodi:rx="1.0732871" sodipodi:ry="0.94701803" style="fill:#f9f9f9" sodipodi:type="arc" d="m-224.19 147.71c0 0.52303-0.48052 0.94702-1.0733 0.94702-0.59276 0-1.0733-0.42399-1.0733-0.94702 0-0.52302 0.48053-0.94701 1.0733-0.94701 0.59276 0 1.0733 0.42399 1.0733 0.94701z" sodipodi:cy="147.70744" sodipodi:cx="-225.26402"/>
        <path id="path8716" sodipodi:rx="1.0101526" sodipodi:ry="0.9785853" style="fill:#f9f9f9" sodipodi:type="arc" d="m-220.53 150.9c0 0.54045-0.45226 0.97858-1.0102 0.97858-0.55789 0-1.0102-0.43813-1.0102-0.97858 0-0.54046 0.45226-0.97859 1.0102-0.97859 0.55789 0 1.0102 0.43813 1.0102 0.97859z" sodipodi:cy="150.89574" sodipodi:cx="-221.53908"/>
        <path id="path8718" sodipodi:rx="1.0101526" sodipodi:ry="1.0417198" style="fill:#f9f9f9" sodipodi:type="arc" d="m-220.59 146.67c0 0.57532-0.45226 1.0417-1.0102 1.0417-0.55789 0-1.0102-0.4664-1.0102-1.0417 0-0.57533 0.45226-1.0417 1.0102-1.0417 0.55789 0 1.0102 0.46639 1.0102 1.0417z" sodipodi:cy="146.66573" sodipodi:cx="-221.60222"/>
        <path id="path8720" sodipodi:rx="0.94701803" sodipodi:ry="0.88388348" style="fill:#f9f9f9" sodipodi:type="arc" d="m-219.33 143.86c0 0.48816-0.424 0.88389-0.94702 0.88389-0.52303 0-0.94702-0.39573-0.94702-0.88389 0-0.48815 0.42399-0.88388 0.94702-0.88388 0.52302 0 0.94702 0.39573 0.94702 0.88388z" sodipodi:cy="143.85623" sodipodi:cx="-220.27638"/>
        <path id="path8722" sodipodi:rx="0.91545075" sodipodi:ry="0.9785853" style="fill:#f9f9f9" sodipodi:type="arc" d="m-214.15 143.76c0 0.54045-0.40987 0.97858-0.91545 0.97858-0.50559 0-0.91546-0.43813-0.91546-0.97858 0-0.54046 0.40987-0.97859 0.91546-0.97859 0.50558 0 0.91545 0.43813 0.91545 0.97859z" sodipodi:cy="143.76154" sodipodi:cx="-215.06779"/>
        <path id="path8724" sodipodi:rx="0.75761443" sodipodi:ry="0.72604716" style="fill:#f9f9f9" sodipodi:type="arc" d="m-216.05 146.86c0 0.40099-0.3392 0.72605-0.75762 0.72605-0.41841 0-0.75761-0.32506-0.75761-0.72605 0-0.40098 0.3392-0.72604 0.75761-0.72604 0.41842 0 0.75762 0.32506 0.75762 0.72604z" sodipodi:cy="146.85513" sodipodi:cx="-216.80399"/>
      </g>
      <g id="g8726" transform="matrix(.94156 -.20494 .20494 .94156 -399.89 -32.907)">
        <path id="path8728" d="m-247.23 146.38c-0.70944-2.9915 2.9534-5.2512 3.8166-7.9125 3.5191-9.6031 15.118-15.569 27.959-9.8034 1.4958 1.3287 2.93 3.4021 5.2856 3.66 6.3771 1.6832 2.311 5.0545 0.97428 7.8645-1.9411 6.8005-7.6076 12.93-13.984 14.657-6.3997 0.82239-14.471-0.66999-19.111-4.8205-1.509-2.2067-4.6654-2.4874-4.94-3.6456z" sodipodi:nodetypes="sccccccs" style="stroke:#ffffff;stroke-width:1px;fill:#fef202" inkscape:connector-curvature="0"/>
        <path id="path8730" sodipodi:rx="1.1048543" sodipodi:ry="0.9785853" style="fill:#f9f9f9" sodipodi:type="arc" d="m-227.41 151.53c0 0.54046-0.49466 0.97859-1.1048 0.97859-0.6102 0-1.1049-0.43813-1.1049-0.97859 0-0.54045 0.49466-0.97858 1.1049-0.97858 0.61019 0 1.1048 0.43813 1.1048 0.97858z" sodipodi:cy="151.52708" sodipodi:cx="-228.51544"/>
        <path id="path8732" sodipodi:rx="1.0732871" sodipodi:ry="0.94701803" style="fill:#f9f9f9" sodipodi:type="arc" d="m-224.19 147.71c0 0.52303-0.48052 0.94702-1.0733 0.94702-0.59276 0-1.0733-0.42399-1.0733-0.94702 0-0.52302 0.48053-0.94701 1.0733-0.94701 0.59276 0 1.0733 0.42399 1.0733 0.94701z" sodipodi:cy="147.70744" sodipodi:cx="-225.26402"/>
        <path id="path8734" sodipodi:rx="1.0101526" sodipodi:ry="0.9785853" style="fill:#f9f9f9" sodipodi:type="arc" d="m-220.53 150.9c0 0.54045-0.45226 0.97858-1.0102 0.97858-0.55789 0-1.0102-0.43813-1.0102-0.97858 0-0.54046 0.45226-0.97859 1.0102-0.97859 0.55789 0 1.0102 0.43813 1.0102 0.97859z" sodipodi:cy="150.89574" sodipodi:cx="-221.53908"/>
        <path id="path8736" sodipodi:rx="1.0101526" sodipodi:ry="1.0417198" style="fill:#f9f9f9" sodipodi:type="arc" d="m-220.59 146.67c0 0.57532-0.45226 1.0417-1.0102 1.0417-0.55789 0-1.0102-0.4664-1.0102-1.0417 0-0.57533 0.45226-1.0417 1.0102-1.0417 0.55789 0 1.0102 0.46639 1.0102 1.0417z" sodipodi:cy="146.66573" sodipodi:cx="-221.60222"/>
        <path id="path8738" sodipodi:rx="0.94701803" sodipodi:ry="0.88388348" style="fill:#f9f9f9" sodipodi:type="arc" d="m-219.33 143.86c0 0.48816-0.424 0.88389-0.94702 0.88389-0.52303 0-0.94702-0.39573-0.94702-0.88389 0-0.48815 0.42399-0.88388 0.94702-0.88388 0.52302 0 0.94702 0.39573 0.94702 0.88388z" sodipodi:cy="143.85623" sodipodi:cx="-220.27638"/>
        <path id="path8740" sodipodi:rx="0.91545075" sodipodi:ry="0.9785853" style="fill:#f9f9f9" sodipodi:type="arc" d="m-214.15 143.76c0 0.54045-0.40987 0.97858-0.91545 0.97858-0.50559 0-0.91546-0.43813-0.91546-0.97858 0-0.54046 0.40987-0.97859 0.91546-0.97859 0.50558 0 0.91545 0.43813 0.91545 0.97859z" sodipodi:cy="143.76154" sodipodi:cx="-215.06779"/>
        <path id="path8742" sodipodi:rx="0.75761443" sodipodi:ry="0.72604716" style="fill:#f9f9f9" sodipodi:type="arc" d="m-216.05 146.86c0 0.40099-0.3392 0.72605-0.75762 0.72605-0.41841 0-0.75761-0.32506-0.75761-0.72605 0-0.40098 0.3392-0.72604 0.75761-0.72604 0.41842 0 0.75762 0.32506 0.75762 0.72604z" sodipodi:cy="146.85513" sodipodi:cx="-216.80399"/>
      </g>
      <g id="g8744" transform="translate(-298.75 52.77)">
        <path id="path8746" sodipodi:nodetypes="csccc" style="fill:#81be25" inkscape:connector-curvature="0" d="m-362.14 51.869c8.4503 6.4792 13.761 2.5334 17.609 0.0034 4.9386-3.2464 7.8821-15.823 7.8821-15.823s-13.907-3.1738-21.07 0.17483c-4.5321 2.6466-6.2784 10.09-4.422 15.645z"/>
        <g id="g8748" style="stroke:#60b130;fill:#60b130">
          <path id="path8750" sodipodi:nodetypes="cc" d="m-361.52 50.666c6.4583-5.6653 12.917-9.1752 19.375-12.5" style="stroke:#60b130;stroke-linecap:round;stroke-width:1px;fill:#60b130" inkscape:connector-curvature="0"/>
          <path id="path8752" sodipodi:nodetypes="cc" d="m-351.25 43.076c3.2714-0.2059 5.746 0.38491 7.5893 1.6071" style="stroke:#60b130;stroke-linecap:round;stroke-width:1px;fill:#60b130" inkscape:connector-curvature="0"/>
          <path id="path8754" sodipodi:nodetypes="cc" d="m-355.71 46.38c5.8099 1.3413 5.7964 2.3591 7.6786 3.4821" style="stroke:#60b130;stroke-linecap:round;stroke-width:1px;fill:#60b130" inkscape:connector-curvature="0"/>
          <path id="path8756" sodipodi:nodetypes="cc" d="m-352.41 43.701c1.1248-2.7176 0.88177-4.6535 0.35715-6.4286" style="stroke:#60b130;stroke-linecap:round;stroke-width:1px;fill:#60b130" inkscape:connector-curvature="0"/>
        </g>
      </g>
    </g>
  </g>
  <metadata>
    <rdf:RDF>
      <cc:Work>
        <dc:format>image/svg+xml</dc:format>
        <dc:type rdf:resource="http://purl.org/dc/dcmitype/StillImage"/>
        <cc:license rdf:resource="http://creativecommons.org/licenses/publicdomain/"/>
        <dc:publisher>
          <cc:Agent rdf:about="http://openclipart.org/">
            <dc:title>Openclipart</dc:title>
          </cc:Agent>
        </dc:publisher>
        <dc:title>lemon tree </dc:title>
        <dc:date>2012-10-16T16:52:29</dc:date>
        <dc:description/>
        <dc:source>https://openclipart.org/detail/172787/lemon-tree--by-stilg4r-172787</dc:source>
        <dc:creator>
          <cc:Agent>
            <dc:title>stilg4r</dc:title>
          </cc:Agent>
        </dc:creator>
        <dc:subject>
          <rdf:Bag>
            <rdf:li>lemon</rdf:li>
            <rdf:li>tree</rdf:li>
            <rdf:li>fruit</rdf:li>
            <rdf:li>green</rdf:li>
            <rdf:li>nature</rdf:li>
            <rdf:li>farm</rdf:li>
            <rdf:li>produce</rdf:li>
          </rdf:Bag>
        </dc:subject>
      </cc:Work>
      <cc:License rdf:about="http://creativecommons.org/licenses/publicdomain/">
        <cc:permits rdf:resource="http://creativecommons.org/ns#Reproduction"/>
        <cc:permits rdf:resource="http://creativecommons.org/ns#Distribution"/>
        <cc:permits rdf:resource="http://creativecommons.org/ns#DerivativeWorks"/>
      </cc:License>
    </rdf:RDF>
  </metadata>
</svg>